<svg width="50" height="50" viewBox="0 0 50 50" fill="none" xmlns="http://www.w3.org/2000/svg">
<path d="M41.4974 26.2402C41.4714 22.6563 43.6329 19.9512 48.0079 17.959C45.5599 15.332 41.862 13.8867 36.9792 13.6035C32.3568 13.3301 27.3047 15.625 25.4558 15.625C23.5026 15.625 19.0235 13.7012 15.5079 13.7012C8.24223 13.7891 0.520874 18.0469 0.520874 26.709C0.520874 29.2676 1.14587 31.9108 2.39587 34.6387C4.06254 38.2227 10.0782 47.0117 16.3542 46.8652C19.6355 46.8066 21.9532 45.1172 26.224 45.1172C30.3646 45.1172 32.5131 46.8652 36.1719 46.8652C42.5 46.7969 47.9427 38.8086 49.5313 35.2148C41.0417 32.2168 41.4974 26.4258 41.4974 26.2402V26.2402ZM34.1276 10.2051C37.6823 7.04102 37.3568 4.16016 37.2526 3.125C34.1146 3.26172 30.4818 4.72656 28.4115 6.5332C26.1329 8.4668 24.7917 10.8594 25.0782 13.5547C28.4766 13.75 31.5756 12.4414 34.1276 10.2051V10.2051Z" fill="#CCCACA"/>
</svg>
